<svg width="1080" height="1080" viewBox="0 0 1080 1080" fill="none" xmlns="http://www.w3.org/2000/svg">
<ellipse cx="545.028" cy="542.007" rx="416.313" ry="415.539" fill="white"/>
<path d="M521.342 576.066C552.24 576.066 577.287 551.359 577.287 520.881C577.287 490.403 552.24 465.696 521.342 465.696C490.445 465.696 465.398 490.403 465.398 520.881C465.398 551.359 490.445 576.066 521.342 576.066Z" fill="#4ABFBD"/>
<path d="M591.127 602.762C579.409 612.266 565.772 619.2 551.123 623.101C536.475 627.002 521.151 627.78 506.174 625.385C491.196 622.99 476.908 617.476 464.261 609.21C451.613 600.944 440.897 590.116 432.827 577.448C422.453 560.411 416.102 541.29 414.245 521.504C412.947 507.13 414.711 492.648 419.422 478.986C424.92 465.018 432.061 451.733 440.699 439.406C445.096 432.413 446.16 427.098 434.387 431.993C418.038 441.355 404.673 455.041 395.805 471.504C388.218 485.502 382.883 500.576 379.989 516.189C379.209 520.525 369.634 586.119 420.415 629.615C429.659 637.083 439.956 643.184 450.983 647.727C471.023 655.76 492.67 659.134 514.246 657.587C529.058 655.956 543.463 651.766 556.8 645.21C559.904 643.585 562.912 641.788 565.808 639.825C584.348 626.999 598.437 608.859 606.163 587.867C601.661 593.308 596.624 598.297 591.127 602.762V602.762Z" fill="#8FCBE0"/>
<path d="M700.989 465.224C693.847 441.881 679.952 421.097 661.006 405.418C651.509 397.718 640.341 392.275 628.367 389.513C616.393 386.751 603.934 386.742 591.957 389.488C581.677 392.213 570.689 400.178 572.036 410.449C573.615 416.231 576.986 421.385 581.677 425.19C602.605 446.664 617.017 473.482 623.281 502.61C629.546 531.738 627.412 562.012 617.123 590.007C608.794 614.132 592.813 634.977 571.54 649.463C551.359 662.849 527.523 669.867 503.2 669.585C483.579 669.507 464.156 665.712 445.99 658.406C434.611 653.734 423.946 647.526 414.301 639.962C432.283 660.398 455.272 675.959 481.081 685.165C521.093 698.817 564.79 697.574 603.937 681.672C638.131 667.057 666.677 642.033 685.392 610.268C688.898 604.451 692.047 598.431 694.821 592.242C712.582 552.074 714.776 506.881 700.989 465.224V465.224Z" fill="#3A53A2"/>
<path fill-rule="evenodd" clip-rule="evenodd" d="M56.8398 540C56.8398 273.156 272.931 56.8367 539.493 56.8367C806.056 56.8367 1022.15 273.156 1022.15 540C1022.15 806.844 806.056 1023.16 539.493 1023.16C272.931 1023.16 56.8398 806.844 56.8398 540ZM539.57 236.167C532.4 236.167 523.986 232.68 514.271 226.534C505.81 221.182 497.121 214.327 488.158 207.255C486.93 206.286 485.697 205.313 484.459 204.34C474.382 196.417 463.918 188.414 453.787 183.118C443.743 177.868 432.758 174.598 422.138 178.048L422.134 178.049C411.277 181.582 404.091 190.695 398.887 200.961C393.653 211.286 389.833 223.969 386.341 236.337C385.792 238.284 385.25 240.223 384.713 242.149L384.697 242.204C381.754 252.746 378.917 262.906 375.466 271.811C371.332 282.477 366.751 290.112 361.207 294.169C355.663 298.224 346.989 300.281 335.562 300.981C325.865 301.575 315.116 301.162 303.98 300.735C302.145 300.665 300.3 300.594 298.447 300.527C285.606 300.065 272.378 299.796 260.99 301.545C249.693 303.28 238.829 307.199 232.201 316.312C225.572 325.428 225.196 336.953 227.034 348.218C228.887 359.569 233.23 372.046 237.636 384.104C238.254 385.796 238.874 387.481 239.491 389.156C243.355 399.661 247.09 409.815 249.532 419.295C252.394 430.406 253.128 439.383 250.968 446.052C248.922 452.376 243.175 458.966 234.331 466.141C227.112 471.997 218.562 477.687 209.658 483.612L209.653 483.616C207.784 484.86 205.899 486.114 204.008 487.383C193.324 494.548 182.438 502.161 174.229 510.435C166.057 518.671 159.644 528.446 159.644 540C159.644 551.553 166.057 561.332 174.228 569.571C182.437 577.849 193.322 585.467 204.007 592.636C205.912 593.914 207.81 595.178 209.692 596.431C218.584 602.351 227.121 608.034 234.332 613.882C243.176 621.054 248.92 627.635 250.967 633.945C253.121 640.604 252.378 649.562 249.506 660.653C247.066 670.074 243.345 680.159 239.493 690.6C238.857 692.323 238.218 694.055 237.581 695.795C233.167 707.844 228.821 720.318 226.976 731.687C225.144 742.979 225.548 754.521 232.198 763.683C238.848 772.845 249.725 776.814 261.054 778.582C272.468 780.363 285.712 780.108 298.562 779.645C300.544 779.574 302.517 779.498 304.478 779.422C315.483 778.996 326.092 778.586 335.671 779.15C347.091 779.822 355.727 781.842 361.218 785.84C366.703 789.834 371.261 797.425 375.39 808.09C378.824 816.958 381.655 827.082 384.596 837.596C385.15 839.578 385.708 841.573 386.275 843.577C389.778 855.96 393.616 868.66 398.864 878.999C404.08 889.275 411.278 898.401 422.139 901.927L422.146 901.929C432.765 905.362 443.745 902.085 453.785 896.834C463.913 891.537 474.374 883.536 484.449 875.616C485.676 874.652 486.897 873.688 488.114 872.728C497.087 865.651 505.786 858.789 514.258 853.434C523.973 847.294 532.392 843.807 539.57 843.807C546.747 843.807 555.166 847.297 564.884 853.444C573.348 858.798 582.04 865.656 591.004 872.729L591.035 872.753C592.253 873.714 593.476 874.679 594.704 875.644C604.782 883.569 615.247 891.573 625.379 896.867C635.424 902.116 646.411 905.384 657.032 901.925C667.889 898.399 675.074 889.29 680.278 879.029C685.512 868.707 689.333 856.027 692.824 843.66C693.111 842.645 693.395 841.631 693.678 840.621C693.943 839.674 694.207 838.73 694.47 837.789C697.413 827.249 700.249 817.093 703.7 808.189C707.833 797.523 712.415 789.888 717.959 785.832C723.5 781.778 732.171 779.727 743.598 779.038C753.272 778.454 763.992 778.872 775.099 779.306C776.064 779.344 777.032 779.381 778.002 779.419C778.904 779.453 779.808 779.487 780.714 779.521C793.557 779.991 806.788 780.265 818.179 778.508C829.484 776.765 840.348 772.827 846.972 763.677C853.591 754.535 853.971 743.002 852.131 731.725C850.279 720.365 845.935 707.89 841.529 695.837C841.089 694.634 840.649 693.434 840.209 692.239L839.662 690.755C835.802 680.268 832.072 670.136 829.633 660.675C826.772 649.576 826.038 640.61 828.197 633.949C830.243 627.632 835.99 621.043 844.835 613.866C852.052 608.011 860.599 602.32 869.501 596.394C871.374 595.147 873.264 593.889 875.159 592.617C885.843 585.448 896.728 577.832 904.937 569.558C913.107 561.322 919.522 551.548 919.522 540C919.522 528.457 913.106 518.687 904.936 510.456C896.727 502.185 885.842 494.571 875.159 487.402C873.273 486.137 871.394 484.886 869.53 483.645C860.618 477.711 852.061 472.013 844.836 466.149C835.993 458.971 830.246 452.38 828.199 446.056C826.044 439.39 826.788 430.428 829.66 419.336C832.101 409.912 835.823 399.824 839.676 389.382L839.694 389.334C840.322 387.63 840.954 385.917 841.585 384.196C845.998 372.149 850.345 359.677 852.19 348.31C854.022 337.019 853.618 325.479 846.968 316.317C840.318 307.155 829.441 303.185 818.112 301.418C806.698 299.637 793.454 299.892 780.604 300.355C778.622 300.426 776.649 300.502 774.688 300.578C763.683 301.004 753.073 301.414 743.495 300.851C732.074 300.178 723.438 298.158 717.947 294.16C712.462 290.166 707.905 282.575 703.776 271.91C700.342 263.04 697.51 252.914 694.569 242.398C694.015 240.417 693.457 238.423 692.89 236.42C689.387 224.035 685.55 211.333 680.302 200.991C675.086 190.712 667.89 181.582 657.031 178.049L657.019 178.045C646.401 174.613 635.418 177.889 625.374 183.14C615.242 188.437 604.776 196.438 594.696 204.358C593.464 205.326 592.236 206.293 591.014 207.257C582.043 214.33 573.344 221.188 564.876 226.54C555.158 232.681 546.742 236.167 539.57 236.167Z" fill="#021841"/>
</svg>
