<svg width="537" height="538" viewBox="0 0 537 538" fill="none" xmlns="http://www.w3.org/2000/svg">
<circle cx="271" cy="270" r="207" fill="white"/>
<path d="M259.223 286.966C274.586 286.966 287.04 274.658 287.04 259.476C287.04 244.294 274.586 231.986 259.223 231.986C243.86 231.986 231.406 244.294 231.406 259.476C231.406 274.658 243.86 286.966 259.223 286.966Z" fill="#4ABFBD"/>
<path d="M293.921 300.265C288.094 304.999 281.314 308.453 274.03 310.396C266.747 312.34 259.127 312.728 251.68 311.535C244.233 310.341 237.129 307.595 230.84 303.477C224.552 299.359 219.223 293.965 215.21 287.654C210.052 279.168 206.894 269.643 205.971 259.786C205.326 252.626 206.203 245.412 208.545 238.606C211.279 231.648 214.83 225.03 219.125 218.889C221.311 215.406 221.84 212.758 215.986 215.197C207.857 219.86 201.212 226.678 196.802 234.879C193.03 241.852 190.377 249.361 188.938 257.139C188.55 259.298 183.79 291.974 209.039 313.642C213.635 317.362 218.755 320.401 224.238 322.664C234.203 326.666 244.966 328.346 255.694 327.576C263.059 326.763 270.221 324.676 276.853 321.41C278.396 320.601 279.892 319.705 281.332 318.728C290.55 312.338 297.556 303.302 301.397 292.845C299.158 295.555 296.654 298.041 293.921 300.265V300.265Z" fill="#3A53A2"/>
<path d="M348.548 231.751C344.996 220.122 338.088 209.768 328.667 201.958C323.945 198.122 318.392 195.411 312.438 194.035C306.485 192.659 300.29 192.655 294.334 194.023C289.223 195.38 283.76 199.348 284.429 204.464C285.215 207.345 286.891 209.912 289.223 211.808C299.629 222.505 306.795 235.864 309.91 250.374C313.025 264.884 311.964 279.965 306.848 293.911C302.706 305.929 294.76 316.313 284.183 323.529C274.148 330.197 262.297 333.693 250.202 333.553C240.447 333.514 230.789 331.623 221.756 327.984C216.099 325.656 210.796 322.564 206 318.796C214.941 328.976 226.372 336.728 239.205 341.314C259.1 348.114 280.827 347.495 300.292 339.574C317.293 332.293 331.487 319.828 340.793 304.004C342.536 301.106 344.102 298.107 345.481 295.024C354.312 275.015 355.403 252.502 348.548 231.751V231.751Z" fill="#021841"/>
<path fill-rule="evenodd" clip-rule="evenodd" d="M28.2617 269C28.2617 136.072 135.707 28.3131 268.248 28.3131C400.788 28.3131 508.234 136.072 508.234 269C508.234 401.928 400.788 509.687 268.248 509.687C135.707 509.687 28.2617 401.928 28.2617 269ZM268.286 117.646C264.721 117.646 260.537 115.909 255.706 112.848C251.5 110.182 247.179 106.766 242.723 103.244C242.112 102.761 241.499 102.277 240.883 101.791C235.873 97.8447 230.67 93.8579 225.633 91.22C220.639 88.6049 215.177 86.9758 209.896 88.6943L209.894 88.6948C204.496 90.4546 200.923 94.9945 198.335 100.109C195.733 105.252 193.833 111.57 192.097 117.731C191.824 118.701 191.555 119.667 191.287 120.626L191.28 120.654C189.816 125.905 188.406 130.966 186.69 135.402C184.634 140.716 182.356 144.519 179.6 146.54C176.843 148.56 172.531 149.585 166.849 149.933C162.027 150.229 156.682 150.023 151.145 149.811C150.233 149.776 149.316 149.74 148.394 149.707C142.009 149.477 135.432 149.343 129.77 150.214C124.153 151.079 118.751 153.03 115.455 157.57C112.159 162.111 111.972 167.852 112.886 173.464C113.807 179.119 115.967 185.334 118.158 191.341C118.465 192.184 118.773 193.023 119.08 193.858C121.001 199.09 122.858 204.148 124.073 208.871C125.495 214.406 125.861 218.878 124.787 222.2C123.769 225.35 120.912 228.633 116.514 232.207C112.925 235.125 108.674 237.959 104.246 240.911L104.244 240.912C103.314 241.532 102.377 242.157 101.437 242.789C96.1246 246.358 90.712 250.151 86.6302 254.272C82.5671 258.375 79.3782 263.245 79.3782 269C79.3782 274.755 82.5668 279.626 86.6296 283.731C90.7114 287.854 96.1238 291.649 101.436 295.221C102.383 295.857 103.327 296.487 104.263 297.111C108.685 300.06 112.929 302.891 116.515 305.804C120.912 309.377 123.768 312.655 124.786 315.799C125.857 319.116 125.488 323.578 124.059 329.103C122.846 333.796 120.996 338.82 119.081 344.021C118.765 344.879 118.447 345.742 118.13 346.609C115.936 352.611 113.775 358.825 112.857 364.488C111.946 370.114 112.147 375.863 115.454 380.427C118.76 384.991 124.169 386.969 129.802 387.849C135.477 388.736 142.062 388.609 148.451 388.379C149.437 388.343 150.418 388.305 151.393 388.268C156.865 388.056 162.14 387.851 166.903 388.132C172.581 388.467 176.875 389.473 179.605 391.465C182.333 393.454 184.599 397.236 186.652 402.548C188.359 406.966 189.767 412.009 191.229 417.247C191.505 418.234 191.783 419.228 192.064 420.226C193.806 426.395 195.714 432.722 198.324 437.872C200.917 442.991 204.496 447.537 209.896 449.293L209.9 449.294C215.18 451.004 220.639 449.372 225.632 446.756C230.667 444.117 235.869 440.132 240.878 436.186C241.488 435.706 242.096 435.226 242.701 434.748C247.162 431.222 251.488 427.804 255.7 425.137C260.531 422.078 264.717 420.341 268.286 420.341C271.854 420.341 276.041 422.079 280.873 425.142C285.081 427.808 289.403 431.225 293.86 434.748L293.876 434.76C294.481 435.239 295.089 435.72 295.699 436.201C300.711 440.148 305.914 444.135 310.952 446.773C315.947 449.388 321.409 451.015 326.691 449.292C332.089 447.536 335.662 442.998 338.249 437.887C340.852 432.745 342.751 426.428 344.487 420.268C344.63 419.762 344.771 419.257 344.912 418.754C345.044 418.282 345.175 417.812 345.305 417.343C346.769 412.093 348.179 407.033 349.895 402.598C351.95 397.284 354.228 393.481 356.985 391.461C359.74 389.441 364.051 388.42 369.733 388.076C374.543 387.785 379.874 387.994 385.396 388.21C385.876 388.229 386.357 388.247 386.84 388.266C387.288 388.283 387.738 388.3 388.188 388.317C394.574 388.551 401.152 388.687 406.817 387.812C412.437 386.944 417.839 384.982 421.133 380.424C424.424 375.87 424.613 370.125 423.698 364.507C422.777 358.849 420.618 352.634 418.427 346.63C418.208 346.031 417.989 345.433 417.77 344.838L417.499 344.098C415.579 338.874 413.725 333.827 412.512 329.114C411.089 323.585 410.724 319.119 411.798 315.801C412.815 312.654 415.672 309.371 420.07 305.796C423.659 302.879 427.909 300.045 432.335 297.092C433.266 296.471 434.206 295.845 435.148 295.211C440.46 291.64 445.873 287.846 449.954 283.724C454.017 279.622 457.206 274.753 457.206 269C457.206 263.25 454.016 258.383 449.954 254.283C445.872 250.163 440.46 246.369 435.148 242.799C434.21 242.168 433.276 241.545 432.349 240.927C427.918 237.971 423.663 235.132 420.071 232.211C415.674 228.636 412.817 225.352 411.799 222.202C410.727 218.881 411.097 214.417 412.525 208.891C413.739 204.197 415.589 199.172 417.505 193.97L417.514 193.946C417.827 193.097 418.141 192.244 418.454 191.386C420.649 185.385 422.81 179.172 423.727 173.51C424.638 167.885 424.438 162.137 421.131 157.573C417.824 153.009 412.416 151.031 406.783 150.151C401.108 149.264 394.523 149.391 388.133 149.621C387.148 149.657 386.167 149.695 385.192 149.733C379.72 149.945 374.445 150.149 369.682 149.868C364.003 149.533 359.709 148.527 356.979 146.535C354.252 144.546 351.986 140.764 349.933 135.452C348.225 131.033 346.817 125.989 345.355 120.75C345.079 119.763 344.802 118.77 344.52 117.772C342.778 111.603 340.87 105.275 338.261 100.124C335.668 95.0028 332.089 90.4548 326.69 88.6948L326.684 88.6929C321.405 86.983 315.944 88.6151 310.95 91.2309C305.912 93.8696 300.708 97.8551 295.696 101.8C295.083 102.283 294.473 102.765 293.865 103.244C289.404 106.768 285.079 110.184 280.868 112.85C276.037 115.91 271.852 117.646 268.286 117.646Z" fill="#021841"/>
</svg>
