<svg width="834" height="832" viewBox="0 0 834 832" fill="none" xmlns="http://www.w3.org/2000/svg">
<ellipse cx="417.028" cy="416.007" rx="416.313" ry="415.539" fill="white"/>
<path d="M393.342 450.066C424.24 450.066 449.287 425.359 449.287 394.881C449.287 364.403 424.24 339.696 393.342 339.696C362.445 339.696 337.398 364.403 337.398 394.881C337.398 425.359 362.445 450.066 393.342 450.066Z" fill="#4ABFBD"/>
<path d="M463.127 476.762C451.409 486.266 437.772 493.2 423.123 497.101C408.475 501.002 393.151 501.78 378.174 499.385C363.196 496.99 348.908 491.476 336.261 483.21C323.613 474.944 312.897 464.116 304.827 451.448C294.453 434.411 288.102 415.29 286.245 395.504C284.947 381.13 286.711 366.648 291.422 352.986C296.92 339.018 304.061 325.733 312.699 313.406C317.096 306.413 318.16 301.098 306.387 305.993C290.038 315.355 276.673 329.041 267.805 345.504C260.218 359.502 254.883 374.576 251.989 390.189C251.209 394.525 241.634 460.119 292.415 503.615C301.659 511.083 311.956 517.184 322.983 521.727C343.023 529.76 364.67 533.134 386.246 531.587C401.058 529.956 415.463 525.766 428.8 519.21C431.904 517.585 434.912 515.788 437.808 513.825C456.348 500.999 470.437 482.859 478.163 461.867C473.661 467.308 468.624 472.297 463.127 476.762V476.762Z" fill="#8FCBE0"/>
<path d="M572.989 339.224C565.847 315.881 551.952 295.097 533.006 279.418C523.509 271.718 512.341 266.275 500.367 263.513C488.393 260.751 475.934 260.742 463.957 263.488C453.677 266.213 442.689 274.178 444.036 284.449C445.615 290.231 448.986 295.385 453.677 299.19C474.605 320.664 489.017 347.482 495.281 376.61C501.546 405.738 499.412 436.012 489.123 464.007C480.794 488.132 464.813 508.977 443.54 523.463C423.359 536.849 399.523 543.867 375.2 543.585C355.579 543.507 336.156 539.712 317.99 532.406C306.611 527.734 295.946 521.526 286.301 513.962C304.283 534.398 327.272 549.959 353.081 559.165C393.093 572.817 436.79 571.574 475.937 555.672C510.131 541.057 538.677 516.033 557.392 484.268C560.898 478.451 564.047 472.431 566.821 466.242C584.582 426.074 586.776 380.881 572.989 339.224V339.224Z" fill="#3A53A2"/>
</svg>
