<svg width="925" height="184" viewBox="0 0 925 184" fill="none" xmlns="http://www.w3.org/2000/svg">
<g clip-path="url(#clip0)">
<path d="M533.57 176.58H505C487.667 147.247 470.357 117.957 453.07 88.71L452.07 88.77V182.33H410.28V14.87L451.77 3.77002C474.32 44.67 496.77 85.43 519.64 126.9L586.7 8.36002H628.23V182.18H587V84.74L585.79 84.43L533.57 176.58Z" fill="#FEFEFE"/>
<path d="M182.49 8.49C178.76 20.79 175.12 32.81 171.33 45.29H165.33C132.043 45.29 98.7534 45.29 65.4601 45.29C62.6352 45.2787 59.8169 45.5602 57.0501 46.13C49.5001 47.77 44.7401 53.49 44.5201 60.83C44.3101 68 48.4401 73.7 56.0001 75.83C59.0333 76.6367 62.1616 77.0302 65.3001 77C85.4401 77.1 105.58 77 125.72 77.08C143.1 77.2 159 81.64 171.66 94.28C199.14 121.71 187.29 167.19 149.45 178.73C141.827 181.062 133.912 182.305 125.94 182.42C85.3201 182.79 44.7101 182.6 4.09008 182.59C3.09008 182.59 2.09008 182.49 0.210077 182.39C3.92008 170.06 7.52008 158.12 11.3501 145.39H17.0001C52.1201 145.39 87.2401 145.39 122.36 145.39C125.681 145.441 128.995 145.044 132.21 144.21C135.192 143.357 137.824 141.573 139.722 139.12C141.619 136.666 142.684 133.671 142.76 130.57C143.03 123.83 139.99 118.44 133.55 116.12C129.631 114.789 125.519 114.114 121.38 114.12C101.38 113.92 81.4301 114.12 61.4501 113.99C43.7701 113.83 27.3701 109.63 14.6501 96.46C-11.4899 69.4 -1.34992 26.21 34.4701 13.35C42.9111 10.2889 51.7936 8.62048 60.7701 8.41C100.21 7.89 139.66 8.17 179.11 8.18C180.08 8.18 181 8.35 182.49 8.49Z" fill="#FEFEFE"/>
<path d="M199.22 11.24L241.36 0V6.41C241.36 39.41 241.81 72.41 241.21 105.41C240.79 128.51 250.32 139.5 272.65 143.16C288.65 145.79 304.8 145.89 320.7 141.74C338.48 137.1 346.35 127.09 346.38 108.86C346.44 76.0133 346.44 43.17 346.38 10.33V4.72H388.26V10.12C388.26 41.8 387.68 73.49 388.41 105.12C389.35 145.97 367.87 168.3 332.69 177.53C303.97 185.08 275.04 185.12 246.63 175.46C216.15 165.09 199.21 141.13 199.2 109.14C199.2 78.2867 199.2 47.4333 199.2 16.58L199.22 11.24Z" fill="#FEFEFE"/>
<path d="M817.48 182.37H775.48V45.37H710.83V8.45996H894.25L883.1 45.3H817.48V113V182.37Z" fill="#FEFEFE"/>
<path d="M652 182.26C651.544 181.103 651.235 179.894 651.08 178.66V11.52C651.08 10.9842 651.141 10.444 651.218 9.77199C651.257 9.42817 651.299 9.04986 651.34 8.62H692.69C692.722 9.11912 692.767 9.63794 692.813 10.1691L692.813 10.1735C692.909 11.2905 693.01 12.4621 693.01 13.62C693.057 68.1667 693.077 122.717 693.07 177.27C692.887 178.943 692.531 180.592 692.006 182.191C692.014 182.221 692.022 182.25 692.03 182.28L652 182.26Z" fill="url(#paint0_linear)"/>
<path fill-rule="evenodd" clip-rule="evenodd" d="M900 181C912.703 181 923 170.703 923 158C923 145.297 912.703 135 900 135C887.297 135 877 145.297 877 158C877 170.703 887.297 181 900 181ZM901.413 179.984C900.946 179.991 900.477 180.007 900.008 180.027C900.477 180.03 900.946 180.015 901.413 179.984Z" fill="url(#paint1_linear)"/>
</g>
<defs>
<linearGradient id="paint0_linear" x1="672.076" y1="8.62" x2="672.076" y2="182.28" gradientUnits="userSpaceOnUse">
<stop stop-color="#F6961C"/>
<stop offset="1" stop-color="#FEBE0E"/>
</linearGradient>
<linearGradient id="paint1_linear" x1="900" y1="135" x2="900" y2="181" gradientUnits="userSpaceOnUse">
<stop stop-color="#F6961C"/>
<stop offset="1" stop-color="#FEBE0E"/>
</linearGradient>
<clipPath id="clip0">
<rect width="924.91" height="183.01" fill="white"/>
</clipPath>
</defs>
</svg>
