<svg width="2396" height="198" viewBox="0 0 2396 198" fill="none" xmlns="http://www.w3.org/2000/svg">
<path d="M1198.02 4.77438e-06L2395.28 0.299384C2395.28 0.299384 2396 58.8891 2396 198C2335.03 104.817 2132 0.233551 1991.04 103.779C1850.08 207.325 1803.6 143.461 1716.22 97.3338C1712.38 95.3617 1708.25 93.1836 1703.83 90.851C1652.05 63.5257 1560.07 14.9933 1425.91 27.9279C1347.04 35.5322 1337.5 103.779 1290.86 105.162C1244.23 106.544 1238.47 73.5 1198.02 73.5C1151.24 73.3662 1150.5 103.779 1111 103.779C1071.5 103.779 1043.69 36.4282 970.089 27.9279C835.96 14.9871 743.997 63.5019 692.205 90.8241C687.771 93.1633 683.631 95.3472 679.785 97.3238C592.386 143.421 508.241 207.314 403.871 103.769C299.5 0.22467 60.9923 104.807 0 197.98C0 58.8793 0.710123 0.299384 0.710123 0.299384L1197.98 4.98344e-06C1197.99 1.66147e-06 1197.99 0 1198 0C1198.01 0 1198.01 1.59167e-06 1198.02 4.77438e-06Z" fill="#0DBDB4" fill-opacity="0.35"/>
</svg>
