<svg width="2172" height="198" viewBox="0 0 2172 198" fill="none" xmlns="http://www.w3.org/2000/svg">
<path d="M2171.35 0.299384L1086 0L0.643728 0.299384C0.643728 0.299384 0 58.8793 0 197.98C55.2902 104.807 207.9 25.5832 366.602 104.308C479.901 160.473 537.004 143.421 616.232 97.3238C660.447 72.2595 747.397 13.8792 879.396 27.9279C1007.43 44.2398 1071.36 103.779 1086 103.779C1100.64 103.779 1160.61 41.9667 1292.6 27.9279C1424.6 13.8891 1511.55 72.2595 1555.77 97.3338C1634.99 143.461 1692.1 160.513 1805.39 104.318C1964.1 25.5932 2116.73 104.817 2172 198C2172 58.8891 2171.35 0.299384 2171.35 0.299384Z" fill="#0DBDB4"/>
</svg>
